<mxfile host="app.diagrams.net" modified="2024-01-18T04:20:18.641Z" agent="Mozilla/5.0 (Windows NT 10.0; Win64; x64) AppleWebKit/537.36 (KHTML, like Gecko) Chrome/120.0.0.0 Safari/537.36 Edg/120.0.0.0" etag="tEqZwSajcqVDOqnHfp21" version="22.1.21" type="github">
  <diagram id="kgpKYQtTHZ0yAKxKKP6v" name="Page-1">
    <mxGraphModel dx="862" dy="566" grid="1" gridSize="10" guides="1" tooltips="1" connect="1" arrows="1" fold="1" page="1" pageScale="1" pageWidth="850" pageHeight="1100" math="0" shadow="0">
      <root>
        <mxCell id="0" />
        <mxCell id="1" parent="0" />
        <mxCell id="e1YCu3hEwuJ0ZDPl9Z9s-3" value="" style="edgeStyle=orthogonalEdgeStyle;rounded=0;orthogonalLoop=1;jettySize=auto;html=1;" edge="1" parent="1" source="e1YCu3hEwuJ0ZDPl9Z9s-1" target="e1YCu3hEwuJ0ZDPl9Z9s-2">
          <mxGeometry relative="1" as="geometry" />
        </mxCell>
        <mxCell id="e1YCu3hEwuJ0ZDPl9Z9s-1" value="Loading Screen&lt;br&gt;Google/Apple Signup" style="rounded=0;whiteSpace=wrap;html=1;glass=0;sketch=1;curveFitting=1;jiggle=2;fillColor=#d5e8d4;strokeColor=#82b366;" vertex="1" parent="1">
          <mxGeometry x="350" y="80" width="120" height="60" as="geometry" />
        </mxCell>
        <mxCell id="e1YCu3hEwuJ0ZDPl9Z9s-2" value="Vendor or Client(Button)" style="whiteSpace=wrap;html=1;rounded=0;glass=0;sketch=1;curveFitting=1;jiggle=2;fillColor=#d5e8d4;strokeColor=#82b366;" vertex="1" parent="1">
          <mxGeometry x="350" y="160" width="120" height="60" as="geometry" />
        </mxCell>
        <mxCell id="e1YCu3hEwuJ0ZDPl9Z9s-7" value="Vendor" style="shape=parallelogram;perimeter=parallelogramPerimeter;whiteSpace=wrap;html=1;fixedSize=1;" vertex="1" parent="1">
          <mxGeometry x="120" y="300" width="120" height="60" as="geometry" />
        </mxCell>
        <mxCell id="e1YCu3hEwuJ0ZDPl9Z9s-8" value="Client" style="shape=parallelogram;perimeter=parallelogramPerimeter;whiteSpace=wrap;html=1;fixedSize=1;" vertex="1" parent="1">
          <mxGeometry x="570" y="300" width="120" height="60" as="geometry" />
        </mxCell>
        <mxCell id="e1YCu3hEwuJ0ZDPl9Z9s-25" value="" style="endArrow=classic;html=1;rounded=0;exitX=0;exitY=1;exitDx=0;exitDy=0;entryX=0.5;entryY=0;entryDx=0;entryDy=0;" edge="1" parent="1" source="e1YCu3hEwuJ0ZDPl9Z9s-2" target="e1YCu3hEwuJ0ZDPl9Z9s-7">
          <mxGeometry width="50" height="50" relative="1" as="geometry">
            <mxPoint x="360" y="230" as="sourcePoint" />
            <mxPoint x="300" y="290" as="targetPoint" />
          </mxGeometry>
        </mxCell>
        <mxCell id="e1YCu3hEwuJ0ZDPl9Z9s-26" value="" style="endArrow=classic;html=1;rounded=0;exitX=0;exitY=1;exitDx=0;exitDy=0;entryX=0.5;entryY=0;entryDx=0;entryDy=0;" edge="1" parent="1" target="e1YCu3hEwuJ0ZDPl9Z9s-8">
          <mxGeometry width="50" height="50" relative="1" as="geometry">
            <mxPoint x="475" y="220" as="sourcePoint" />
            <mxPoint x="425" y="290" as="targetPoint" />
          </mxGeometry>
        </mxCell>
        <mxCell id="e1YCu3hEwuJ0ZDPl9Z9s-30" value="" style="edgeStyle=orthogonalEdgeStyle;sourcePerimeterSpacing=0;targetPerimeterSpacing=0;startArrow=none;endArrow=none;rounded=0;targetPortConstraint=eastwest;sourcePortConstraint=northsouth;curved=0;rounded=0;" edge="1" parent="1">
          <mxGeometry relative="1" as="geometry">
            <mxPoint x="160" y="360" as="sourcePoint" />
            <mxPoint x="170" y="386" as="targetPoint" />
          </mxGeometry>
        </mxCell>
        <mxCell id="e1YCu3hEwuJ0ZDPl9Z9s-44" value="" style="edgeStyle=orthogonalEdgeStyle;sourcePerimeterSpacing=0;targetPerimeterSpacing=0;startArrow=none;endArrow=none;rounded=0;targetPortConstraint=eastwest;sourcePortConstraint=northsouth;curved=0;rounded=0;" edge="1" target="e1YCu3hEwuJ0ZDPl9Z9s-46" parent="1">
          <mxGeometry relative="1" as="geometry">
            <mxPoint x="630" y="360" as="sourcePoint" />
          </mxGeometry>
        </mxCell>
        <mxCell id="e1YCu3hEwuJ0ZDPl9Z9s-45" value="" style="edgeStyle=orthogonalEdgeStyle;sourcePerimeterSpacing=0;targetPerimeterSpacing=0;startArrow=none;endArrow=none;rounded=0;targetPortConstraint=eastwest;sourcePortConstraint=northsouth;curved=0;rounded=0;" edge="1" target="e1YCu3hEwuJ0ZDPl9Z9s-47" parent="1">
          <mxGeometry relative="1" as="geometry">
            <mxPoint x="630" y="360" as="sourcePoint" />
          </mxGeometry>
        </mxCell>
        <mxCell id="e1YCu3hEwuJ0ZDPl9Z9s-46" value="List of vendors with reviews &amp;amp; filters" style="whiteSpace=wrap;html=1;align=center;verticalAlign=middle;treeFolding=1;treeMoving=1;sketch=1;curveFitting=1;jiggle=2;fillColor=#d5e8d4;strokeColor=#82b366;" vertex="1" parent="1">
          <mxGeometry x="490" y="390" width="130" height="30" as="geometry" />
        </mxCell>
        <mxCell id="e1YCu3hEwuJ0ZDPl9Z9s-47" value="Scheduler(from vendor)" style="whiteSpace=wrap;html=1;align=center;verticalAlign=middle;treeFolding=1;treeMoving=1;sketch=1;curveFitting=1;jiggle=2;fillColor=#d5e8d4;strokeColor=#82b366;" vertex="1" parent="1">
          <mxGeometry x="640" y="390" width="130" height="30" as="geometry" />
        </mxCell>
        <mxCell id="e1YCu3hEwuJ0ZDPl9Z9s-52" value="Portfolio" style="whiteSpace=wrap;html=1;align=center;verticalAlign=middle;treeFolding=1;treeMoving=1;sketch=1;curveFitting=1;jiggle=2;fillColor=#d5e8d4;strokeColor=#82b366;" vertex="1" parent="1">
          <mxGeometry x="130" y="380" width="80" height="20" as="geometry" />
        </mxCell>
        <mxCell id="e1YCu3hEwuJ0ZDPl9Z9s-61" value="Scheduler" style="whiteSpace=wrap;html=1;align=center;verticalAlign=middle;treeFolding=1;treeMoving=1;sketch=1;curveFitting=1;jiggle=2;fillColor=#d5e8d4;strokeColor=#82b366;" vertex="1" parent="1">
          <mxGeometry y="500" width="120" height="20" as="geometry" />
        </mxCell>
        <mxCell id="e1YCu3hEwuJ0ZDPl9Z9s-67" value="Instagram" style="whiteSpace=wrap;html=1;align=center;verticalAlign=middle;treeFolding=1;treeMoving=1;sketch=1;curveFitting=1;jiggle=2;fillColor=#d5e8d4;strokeColor=#82b366;" vertex="1" parent="1">
          <mxGeometry x="140" y="500" width="120" height="20" as="geometry" />
        </mxCell>
        <mxCell id="e1YCu3hEwuJ0ZDPl9Z9s-68" value="Messenger" style="whiteSpace=wrap;html=1;align=center;verticalAlign=middle;treeFolding=1;treeMoving=1;sketch=1;curveFitting=1;jiggle=2;fillColor=#d5e8d4;strokeColor=#82b366;" vertex="1" parent="1">
          <mxGeometry x="280" y="500" width="120" height="20" as="geometry" />
        </mxCell>
        <mxCell id="e1YCu3hEwuJ0ZDPl9Z9s-70" value="" style="endArrow=none;html=1;rounded=0;exitX=0.5;exitY=0;exitDx=0;exitDy=0;entryX=0;entryY=1;entryDx=0;entryDy=0;" edge="1" parent="1" source="e1YCu3hEwuJ0ZDPl9Z9s-61" target="e1YCu3hEwuJ0ZDPl9Z9s-52">
          <mxGeometry relative="1" as="geometry">
            <mxPoint x="-30" y="430" as="sourcePoint" />
            <mxPoint x="130" y="430" as="targetPoint" />
            <Array as="points">
              <mxPoint x="60" y="500" />
            </Array>
          </mxGeometry>
        </mxCell>
        <mxCell id="e1YCu3hEwuJ0ZDPl9Z9s-72" value="" style="endArrow=none;html=1;rounded=0;exitX=0.5;exitY=0;exitDx=0;exitDy=0;entryX=0.5;entryY=1;entryDx=0;entryDy=0;" edge="1" parent="1" target="e1YCu3hEwuJ0ZDPl9Z9s-52">
          <mxGeometry relative="1" as="geometry">
            <mxPoint x="190" y="500" as="sourcePoint" />
            <mxPoint x="260" y="430" as="targetPoint" />
            <Array as="points">
              <mxPoint x="190" y="500" />
            </Array>
          </mxGeometry>
        </mxCell>
        <mxCell id="e1YCu3hEwuJ0ZDPl9Z9s-73" value="" style="endArrow=none;html=1;rounded=0;exitX=0.25;exitY=0;exitDx=0;exitDy=0;entryX=1;entryY=1;entryDx=0;entryDy=0;" edge="1" parent="1" target="e1YCu3hEwuJ0ZDPl9Z9s-52">
          <mxGeometry relative="1" as="geometry">
            <mxPoint x="340" y="500" as="sourcePoint" />
            <mxPoint x="240" y="430" as="targetPoint" />
            <Array as="points">
              <mxPoint x="340" y="490" />
            </Array>
          </mxGeometry>
        </mxCell>
      </root>
    </mxGraphModel>
  </diagram>
</mxfile>
